<svg xmlns="http://www.w3.org/2000/svg" viewBox="0 0 64 64">
  <rect width="64" height="64" rx="14" fill="#2C2C2C"/>
  <path d="M32 20c-4.5-3.2-10.2-4.5-16-4.5v27c5.8 0 11.5 1.3 16 4.5 4.5-3.2 10.2-4.5 16-4.5v-27c-5.8 0-11.5 1.3-16 4.5z"
        fill="none" stroke="#D4AF37" stroke-width="2.6" stroke-linejoin="round" stroke-linecap="round"/>
  <path d="M32 20v27" stroke="#D4AF37" stroke-width="2.6" stroke-linecap="round"/>
  <path d="M19 24c3.4 0 7 .8 9.5 2.3M19 31c3.4 0 7 .8 9.5 2.3M45 24c-3.4 0-7 .8-9.5 2.3M45 31c-3.4 0-7 .8-9.5 2.3"
        stroke="#D4AF37" stroke-width="1.6" stroke-linecap="round" opacity="0.75"/>
</svg>
